<svg width="42" height="14" viewBox="0 0 42 14" fill="none" xmlns="http://www.w3.org/2000/svg">
<path d="M4.4092 13.1704C3.70466 13.1704 3.07587 12.9905 2.52284 12.6307C1.9736 12.267 1.54178 11.75 1.22738 11.0795C0.916778 10.4053 0.761475 9.59657 0.761475 8.65339C0.761475 7.71021 0.918672 6.90339 1.23307 6.23293C1.55125 5.56248 1.98685 5.04922 2.53988 4.69316C3.09291 4.3371 3.71981 4.15907 4.42057 4.15907C4.96223 4.15907 5.39784 4.24998 5.72738 4.4318C6.06072 4.60983 6.31829 4.81816 6.50011 5.0568C6.68572 5.29543 6.82966 5.50566 6.93193 5.68748H7.0342V1.36361H8.73307V13H7.07398V11.642H6.93193C6.82966 11.8276 6.68193 12.0398 6.48875 12.2784C6.29935 12.517 6.03799 12.7254 5.70466 12.9034C5.37132 13.0814 4.9395 13.1704 4.4092 13.1704ZM4.7842 11.7216C5.27284 11.7216 5.68572 11.5928 6.02284 11.3352C6.36375 11.0738 6.62132 10.7121 6.79557 10.25C6.9736 9.78786 7.06261 9.24998 7.06261 8.63634C7.06261 8.03028 6.97549 7.49998 6.80125 7.04543C6.62701 6.59089 6.37132 6.23672 6.0342 5.98293C5.69708 5.72914 5.28041 5.60225 4.7842 5.60225C4.27284 5.60225 3.8467 5.73483 3.50579 5.99998C3.16488 6.26513 2.90731 6.62687 2.73307 7.08521C2.56261 7.54354 2.47738 8.06058 2.47738 8.63634C2.47738 9.21967 2.5645 9.7443 2.73875 10.2102C2.91299 10.6761 3.17057 11.0454 3.51147 11.3182C3.85617 11.5871 4.28041 11.7216 4.7842 11.7216Z" fill="#0C2D66"/>
<path d="M14.8339 13.1761C14.0157 13.1761 13.3017 12.9886 12.6919 12.6136C12.082 12.2386 11.6085 11.714 11.2714 11.0398C10.9343 10.3655 10.7657 9.57763 10.7657 8.67611C10.7657 7.77081 10.9343 6.97914 11.2714 6.30111C11.6085 5.62308 12.082 5.09657 12.6919 4.72157C13.3017 4.34657 14.0157 4.15907 14.8339 4.15907C15.6521 4.15907 16.3661 4.34657 16.976 4.72157C17.5858 5.09657 18.0593 5.62308 18.3964 6.30111C18.7335 6.97914 18.9021 7.77081 18.9021 8.67611C18.9021 9.57763 18.7335 10.3655 18.3964 11.0398C18.0593 11.714 17.5858 12.2386 16.976 12.6136C16.3661 12.9886 15.6521 13.1761 14.8339 13.1761ZM14.8396 11.75C15.3699 11.75 15.8093 11.6098 16.1578 11.3295C16.5063 11.0492 16.7638 10.6761 16.9305 10.2102C17.101 9.7443 17.1862 9.23104 17.1862 8.67043C17.1862 8.11361 17.101 7.60225 16.9305 7.13634C16.7638 6.66664 16.5063 6.28975 16.1578 6.00566C15.8093 5.72157 15.3699 5.57952 14.8396 5.57952C14.3055 5.57952 13.8623 5.72157 13.5101 6.00566C13.1616 6.28975 12.9021 6.66664 12.7316 7.13634C12.565 7.60225 12.4816 8.11361 12.4816 8.67043C12.4816 9.23104 12.565 9.7443 12.7316 10.2102C12.9021 10.6761 13.1616 11.0492 13.5101 11.3295C13.8623 11.6098 14.3055 11.75 14.8396 11.75Z" fill="#0C2D66"/>
<path d="M24.4745 13.1761C23.6564 13.1761 22.9423 12.9886 22.3325 12.6136C21.7226 12.2386 21.2492 11.714 20.912 11.0398C20.5749 10.3655 20.4064 9.57763 20.4064 8.67611C20.4064 7.77081 20.5749 6.97914 20.912 6.30111C21.2492 5.62308 21.7226 5.09657 22.3325 4.72157C22.9423 4.34657 23.6564 4.15907 24.4745 4.15907C25.2927 4.15907 26.0067 4.34657 26.6166 4.72157C27.2264 5.09657 27.6999 5.62308 28.037 6.30111C28.3742 6.97914 28.5427 7.77081 28.5427 8.67611C28.5427 9.57763 28.3742 10.3655 28.037 11.0398C27.6999 11.714 27.2264 12.2386 26.6166 12.6136C26.0067 12.9886 25.2927 13.1761 24.4745 13.1761ZM24.4802 11.75C25.0105 11.75 25.4499 11.6098 25.7984 11.3295C26.1469 11.0492 26.4045 10.6761 26.5711 10.2102C26.7416 9.7443 26.8268 9.23104 26.8268 8.67043C26.8268 8.11361 26.7416 7.60225 26.5711 7.13634C26.4045 6.66664 26.1469 6.28975 25.7984 6.00566C25.4499 5.72157 25.0105 5.57952 24.4802 5.57952C23.9461 5.57952 23.503 5.72157 23.1507 6.00566C22.8022 6.28975 22.5427 6.66664 22.3723 7.13634C22.2056 7.60225 22.1223 8.11361 22.1223 8.67043C22.1223 9.23104 22.2056 9.7443 22.3723 10.2102C22.5427 10.6761 22.8022 11.0492 23.1507 11.3295C23.503 11.6098 23.9461 11.75 24.4802 11.75Z" fill="#0C2D66"/>
<path d="M32.1379 7.81816V13H30.439V1.36361H32.1152V5.69316H32.2231C32.4277 5.22346 32.7402 4.85036 33.1606 4.57384C33.5811 4.29733 34.1303 4.15907 34.8083 4.15907C35.4068 4.15907 35.9296 4.28218 36.3765 4.52839C36.8273 4.7746 37.1758 5.14202 37.422 5.63066C37.672 6.11551 37.797 6.72157 37.797 7.44884V13H36.0981V7.65339C36.0981 7.01324 35.9334 6.51702 35.6038 6.16475C35.2743 5.80869 34.8159 5.63066 34.2288 5.63066C33.8273 5.63066 33.4674 5.71589 33.1493 5.88634C32.8349 6.0568 32.5868 6.3068 32.4049 6.63634C32.2269 6.9621 32.1379 7.35604 32.1379 7.81816Z" fill="#0C2D66"/>
<path d="M40.064 13V4.27271H41.7629V13H40.064ZM40.922 2.92611C40.6265 2.92611 40.3727 2.82763 40.1606 2.63066C39.9523 2.4299 39.8481 2.19127 39.8481 1.91475C39.8481 1.63445 39.9523 1.39581 40.1606 1.19884C40.3727 0.998084 40.6265 0.897705 40.922 0.897705C41.2174 0.897705 41.4693 0.998084 41.6777 1.19884C41.8898 1.39581 41.9958 1.63445 41.9958 1.91475C41.9958 2.19127 41.8898 2.4299 41.6777 2.63066C41.4693 2.82763 41.2174 2.92611 40.922 2.92611Z" fill="#0C2D66"/>
</svg>
