<svg width="212" height="49" viewBox="0 0 212 49" fill="none" xmlns="http://www.w3.org/2000/svg">
<path d="M115.2 18.5C120.6 18.5 124.9 22.9 124.9 28.2C124.9 33.5 120.5 37.9 115.2 37.9C109.9 37.9 105.5 33.5 105.5 28.2C105.5 22.9 109.9 18.5 115.2 18.5ZM115.2 13C106.8 13 100 19.8 100 28.2C100 36.6 106.8 43.4 115.2 43.4C123.6 43.4 130.4 36.6 130.4 28.2C130.4 19.8 123.6 13 115.2 13Z" fill="#515F71"/>
<path d="M148.2 18.5C153.6 18.5 157.9 22.9 157.9 28.2C157.9 33.5 153.5 37.9 148.2 37.9C142.9 37.9 138.5 33.5 138.5 28.2C138.5 22.9 142.9 18.5 148.2 18.5ZM148.2 13C139.8 13 133 19.8 133 28.2C133 36.6 139.8 43.4 148.2 43.4C156.6 43.4 163.4 36.6 163.4 28.2C163.4 19.8 156.6 13 148.2 13Z" fill="#515F71"/>
<path d="M180.6 13C177.4 13 173.7 15 172 17.4C171.9 17.6 171.5 17.5 171.5 17.3V13.8C171.5 13.7 171.4 13.5 171.2 13.5H166.3C166.2 13.5 166 13.6 166 13.8V42.7C166 42.8 166.1 43 166.3 43H171.2C171.3 43 171.5 42.9 171.5 42.7V28.3C171.5 22.8 175.2 18.9 180.5 18.9C187.5 18.9 189.6 23.5 189.6 28.9V42.7C189.6 42.8 189.7 43 189.9 43H194.8C194.9 43 195.1 42.9 195.1 42.7V28.9C195.2 20.5 191.2 13 180.6 13Z" fill="#515F71"/>
<path d="M171.2 0H166.3C166.1 0 166 0.0999992 166 0.299999V42.1C166 42.3 166.1 42.4 166.3 42.4H171.2C171.4 42.4 171.5 42.3 171.5 42.1V0.299999C171.5 0.0999992 171.3 0 171.2 0Z" fill="#515F71"/>
<path d="M203.2 4H198.3C198.1 4 198 4.1 198 4.3V9.2C198 9.4 198.1 9.5 198.3 9.5H203.2C203.4 9.5 203.5 9.4 203.5 9.2V4.3C203.5 4.1 203.4 4 203.2 4Z" fill="#515F71"/>
<path d="M203.2 13.3999H198.3C198.1 13.3999 198 13.4999 198 13.6999V42.4999C198 42.6999 198.1 42.7999 198.3 42.7999H203.2C203.4 42.7999 203.5 42.6999 203.5 42.4999V13.6999C203.5 13.5999 203.4 13.3999 203.2 13.3999Z" fill="#515F71"/>
<path d="M81.223 43.7997C78.669 43.7997 76.39 43.1475 74.385 41.843C72.394 40.5249 70.829 38.6506 69.689 36.2202C68.563 33.776 68 30.8445 68 27.4254C68 24.0064 68.57 21.0817 69.71 18.6513C70.863 16.2209 72.442 14.3603 74.447 13.0696C76.451 11.7789 78.724 11.1335 81.264 11.1335C83.228 11.1335 84.807 11.4631 86.001 12.1222C87.21 12.7675 88.143 13.5227 88.803 14.3878C89.475 15.2528 89.997 16.0149 90.368 16.674H90.739V1H96.897V43.1818H90.883V38.2592H90.368C89.997 38.9321 89.462 39.701 88.761 40.5661C88.075 41.4311 87.127 42.1863 85.919 42.8317C84.711 43.477 83.145 43.7997 81.223 43.7997ZM82.582 38.5476C84.354 38.5476 85.85 38.0807 87.072 37.147C88.308 36.1996 89.242 34.8883 89.874 33.2131C90.519 31.5379 90.842 29.5881 90.842 27.3636C90.842 25.1667 90.526 23.2443 89.894 21.5966C89.263 19.9489 88.336 18.665 87.114 17.745C85.892 16.825 84.381 16.3651 82.582 16.3651C80.729 16.3651 79.184 16.8456 77.948 17.8068C76.712 18.768 75.779 20.0793 75.147 21.7408C74.529 23.4022 74.22 25.2765 74.22 27.3636C74.22 29.4782 74.536 31.38 75.168 33.0689C75.799 34.7578 76.733 36.0966 77.969 37.0852C79.218 38.0601 80.756 38.5476 82.582 38.5476Z" fill="#515F71"/>
<path d="M40.2509 24.4002C40.2509 26.9002 39.6509 29.3002 38.5509 31.4002C38.1509 32.2002 38.3509 33.1002 38.9509 33.8002L42.3509 37.2002C43.2509 38.1002 44.8509 37.9002 45.5509 36.8002C47.7509 33.2002 48.9509 28.9002 48.9509 24.4002C48.9509 19.9002 47.7509 15.6002 45.5509 12.0002C44.8509 10.8002 43.2509 10.6002 42.3509 11.6002L38.9509 15.0002C38.3509 15.6002 38.1509 16.6002 38.5509 17.4002C39.6509 19.5002 40.2509 21.9002 40.2509 24.4002Z" fill="#9DB2B7"/>
<path d="M24.3507 40.0001C15.5507 40.0001 8.3507 32.6001 8.7507 23.7001C9.0507 15.5001 15.9507 8.90011 24.1507 8.80011C26.8507 8.80011 29.4507 9.40012 31.751 10.6001C32.351 10.9001 33.051 10.8001 33.551 10.3001L37.651 6.20012C38.351 5.50012 38.251 4.30012 37.351 3.80012C33.151 1.20012 28.1507 -0.199885 22.7507 0.100115C10.6507 0.900115 0.750696 10.7001 0.0506955 22.9001C-0.849304 37.1001 10.3507 48.8001 24.3507 48.8001C29.1507 48.8001 33.551 47.4001 37.351 45.0001C38.151 44.5001 38.351 43.3001 37.651 42.6001L33.551 38.5001C33.051 38.0001 32.351 37.9001 31.751 38.2001C29.4507 39.4001 26.9507 40.0001 24.3507 40.0001Z" fill="#505E63"/>
</svg>
