<svg width="51" height="17" viewBox="0 0 51 17" fill="none" xmlns="http://www.w3.org/2000/svg">
<path d="M49.108 2H50.88C50.952 2 50.988 2.03852 50.988 2.11554V4.00271C50.988 4.07973 50.952 4.11825 50.88 4.11825H49.108C49.036 4.11825 49 4.07973 49 4.00271V2.11554C49 2.03852 49.036 2 49.108 2Z" fill="#0C2D66"/>
<path d="M49.108 5.25H50.88C50.952 5.25 50.988 5.32703 50.988 5.36554V16.4574C50.988 16.5345 50.952 16.573 50.88 16.573H49.108C49.036 16.573 49 16.5345 49 16.4574V5.36554C49 5.28852 49.036 5.25 49.108 5.25Z" fill="#0C2D66"/>
<path d="M10.1084 0H11.8801C11.9162 0 11.9885 0.03851 11.9885 0.11554V16.2142C11.9885 16.2912 11.9524 16.3297 11.8801 16.3297H10.1084C10.0361 16.3297 10 16.2912 10 16.2142V0.11554C10 0.03851 10.0361 0 10.1084 0Z" fill="#0C2D66"/>
<path d="M37.1084 0H38.8801C38.9162 0 38.9885 0.03851 38.9885 0.11554V16.2142C38.9885 16.2912 38.9524 16.3297 38.8801 16.3297H37.1084C37.0361 16.3297 37 16.2912 37 16.2142V0.11554C37 0.03851 37.0361 0 37.1084 0Z" fill="#0C2D66"/>
<path d="M42.2788 5C41.1218 5 39.784 5.77027 39.1694 6.69459C39.1332 6.77162 38.9886 6.73311 38.9886 6.65608V5.30811C38.9886 5.26959 38.9524 5.19257 38.8801 5.19257H37.1085C37.0723 5.19257 37 5.23108 37 5.30811V16.4385C37 16.477 37.0362 16.5541 37.1085 16.5541H38.8801C38.9163 16.5541 38.9886 16.5155 38.9886 16.4385V10.8926C38.9886 8.77432 40.3264 7.2723 42.2426 7.2723C44.7735 7.2723 45.5328 9.0439 45.5328 11.1237V16.4385C45.5328 16.477 45.569 16.5541 45.6413 16.5541H47.4129C47.4491 16.5541 47.5214 16.5155 47.5214 16.4385V11.1237C47.5575 7.88851 46.1113 5 42.2788 5Z" fill="#0C2D66"/>
<path fill-rule="evenodd" clip-rule="evenodd" d="M6.39804 4.68945C3.36095 4.68945 0.902344 7.30837 0.902344 10.5435C0.902344 13.7786 3.36095 16.3975 6.39804 16.3975C9.43514 16.3975 11.8937 13.7786 11.8937 10.5435C11.8937 7.30837 9.43514 4.68945 6.39804 4.68945ZM6.39803 6.80768C8.35045 6.80768 9.90516 8.50227 9.90516 10.5434C9.90516 12.5847 8.3143 14.2793 6.39803 14.2793C4.48177 14.2793 2.89091 12.5847 2.89091 10.5434C2.89091 8.50227 4.48177 6.80768 6.39803 6.80768Z" fill="#0C2D66"/>
<path fill-rule="evenodd" clip-rule="evenodd" d="M18.4056 4.68994C15.3685 4.68994 12.9099 7.30886 12.9099 10.544C12.9099 13.7791 15.3685 16.398 18.4056 16.398C21.4427 16.398 23.9013 13.7791 23.9013 10.544C23.9013 7.30886 21.4427 4.68994 18.4056 4.68994ZM18.4056 6.80817C20.358 6.80817 21.9127 8.50276 21.9127 10.5439C21.9127 12.5852 20.3219 14.2798 18.4056 14.2798C16.4893 14.2798 14.8985 12.5852 14.8985 10.5439C14.8985 8.50276 16.4893 6.80817 18.4056 6.80817Z" fill="#0C2D66"/>
<path fill-rule="evenodd" clip-rule="evenodd" d="M30.4957 4.68994C27.4586 4.68994 25 7.30886 25 10.544C25 13.7791 27.4586 16.398 30.4957 16.398C33.5328 16.398 35.9914 13.7791 35.9914 10.544C35.9914 7.30886 33.5328 4.68994 30.4957 4.68994ZM30.4957 6.80817C32.4481 6.80817 34.0028 8.50276 34.0028 10.5439C34.0028 12.5852 32.412 14.2798 30.4957 14.2798C28.5794 14.2798 26.9886 12.5852 26.9886 10.5439C26.9886 8.50276 28.5794 6.80817 30.4957 6.80817Z" fill="#0C2D66"/>
</svg>
