<svg width="187" height="46" viewBox="0 0 187 46" fill="none" xmlns="http://www.w3.org/2000/svg">
<path d="M98.2 18.5C103.6 18.5 107.9 22.9 107.9 28.2C107.9 33.5 103.5 37.9 98.2 37.9C92.9 37.9 88.5 33.5 88.5 28.2C88.5 22.9 92.9 18.5 98.2 18.5ZM98.2 13C89.8 13 83 19.8 83 28.2C83 36.6 89.8 43.4 98.2 43.4C106.6 43.4 113.4 36.6 113.4 28.2C113.4 19.8 106.6 13 98.2 13Z" fill="#515F71"/>
<path d="M131.2 18.5C136.6 18.5 140.9 22.9 140.9 28.2C140.9 33.5 136.5 37.9 131.2 37.9C125.9 37.9 121.5 33.5 121.5 28.2C121.5 22.9 125.9 18.5 131.2 18.5ZM131.2 13C122.8 13 116 19.8 116 28.2C116 36.6 122.8 43.4 131.2 43.4C139.6 43.4 146.4 36.6 146.4 28.2C146.4 19.8 139.6 13 131.2 13Z" fill="#515F71"/>
<path d="M163.6 13C160.4 13 156.7 15 155 17.4C154.9 17.6 154.5 17.5 154.5 17.3V13.8C154.5 13.7 154.4 13.5 154.2 13.5H149.3C149.2 13.5 149 13.6 149 13.8V42.7C149 42.8 149.1 43 149.3 43H154.2C154.3 43 154.5 42.9 154.5 42.7V28.3C154.5 22.8 158.2 18.9 163.5 18.9C170.5 18.9 172.6 23.5 172.6 28.9V42.7C172.6 42.8 172.7 43 172.9 43H177.8C177.9 43 178.1 42.9 178.1 42.7V28.9C178.2 20.5 174.2 13 163.6 13Z" fill="#515F71"/>
<path d="M154.2 0H149.3C149.1 0 149 0.1 149 0.3V42.1C149 42.3 149.1 42.4 149.3 42.4H154.2C154.4 42.4 154.5 42.3 154.5 42.1V0.3C154.5 0.1 154.3 0 154.2 0Z" fill="#515F71"/>
<path d="M186.2 4H181.3C181.1 4 181 4.1 181 4.3V9.2C181 9.4 181.1 9.5 181.3 9.5H186.2C186.4 9.5 186.5 9.4 186.5 9.2V4.3C186.5 4.1 186.4 4 186.2 4Z" fill="#515F71"/>
<path d="M186.2 13.3999H181.3C181.1 13.3999 181 13.4999 181 13.6999V42.4999C181 42.6999 181.1 42.7999 181.3 42.7999H186.2C186.4 42.7999 186.5 42.6999 186.5 42.4999V13.6999C186.5 13.5999 186.4 13.3999 186.2 13.3999Z" fill="#515F71"/>
<path d="M30.1 27.3C30.1 29.6 29.4 31.8001 28.2 33.7001L33 38.5C35.3 35.4 36.7 31.6001 36.7 27.4001C36.7 23.2001 35.2999 19.4 32.8999 16.3L28.2 21C29.4 22.8 30.1 25 30.1 27.3Z" fill="#B8D3F4"/>
<path d="M18.3 39.1C11.8 39.1 6.5 33.8 6.5 27.3C6.5 20.8 11.8 15.5 18.3 15.5C20.7 15.5 22.9 16.2 24.7 17.4L29.4 12.7C26.3 10.4 22.5 9 18.3 9C8.2 9 0 17.2 0 27.3C0 37.4 8.2 45.6 18.3 45.6C22.5 45.6 26.3 44.2 29.4 41.8L24.6 37C22.9 38.4 20.7 39.1 18.3 39.1Z" fill="#7FADF2"/>
<path d="M64.223 43.7997C61.669 43.7997 59.3897 43.1475 57.3849 41.843C55.3939 40.5249 53.8286 38.6506 52.6889 36.2202C51.563 33.776 51 30.8445 51 27.4254C51 24.0064 51.5698 21.0817 52.7095 18.6513C53.8629 16.2209 55.442 14.3603 57.4467 13.0696C59.4515 11.7789 61.724 11.1335 64.2642 11.1335C66.2277 11.1335 67.8068 11.4631 69.0014 12.1222C70.2098 12.7675 71.1435 13.5227 71.8026 14.3878C72.4754 15.2528 72.9972 16.0149 73.3679 16.674H73.7386V1H79.897V43.1818H73.8828V38.2592H73.3679C72.9972 38.9321 72.4616 39.701 71.7614 40.5661C71.0748 41.4311 70.1274 42.1863 68.919 42.8317C67.7107 43.477 66.1454 43.7997 64.223 43.7997ZM65.5824 38.5476C67.3537 38.5476 68.8504 38.0807 70.0724 37.147C71.3082 36.1996 72.242 34.8883 72.8736 33.2131C73.5189 31.5379 73.8416 29.5881 73.8416 27.3636C73.8416 25.1667 73.5258 23.2443 72.8942 21.5966C72.2625 19.9489 71.3357 18.665 70.1136 17.745C68.8916 16.825 67.3812 16.3651 65.5824 16.3651C63.7287 16.3651 62.1839 16.8456 60.9482 17.8068C59.7124 18.768 58.7786 20.0793 58.147 21.7408C57.5291 23.4022 57.2202 25.2765 57.2202 27.3636C57.2202 29.4782 57.536 31.38 58.1676 33.0689C58.7992 34.7578 59.733 36.0966 60.9688 37.0852C62.2183 38.0601 63.7562 38.5476 65.5824 38.5476Z" fill="#515F71"/>
</svg>
