<svg width="87" height="28" viewBox="0 0 87 28" fill="none" xmlns="http://www.w3.org/2000/svg">
<path fill-rule="evenodd" clip-rule="evenodd" d="M26.009 6.02649C27.5796 8.28932 28.5 11.037 28.5 14C28.5 16.963 27.5796 19.711 26.009 21.9735L22.3826 18.3471C23.0948 17.0585 23.5001 15.5764 23.5001 14C23.5001 12.4236 23.0948 10.9418 22.3826 9.65324L26.009 6.02649Z" fill="#99CFFF"/>
<path fill-rule="evenodd" clip-rule="evenodd" d="M22.4735 2.49111L18.8468 6.11758C17.5582 5.40539 16.0764 5.00002 14.5 5.00002C9.5295 5.00002 5.4999 9.02962 5.4999 14.0001C5.4999 18.9706 9.5295 23.0002 14.5 23.0002C16.0764 23.0002 17.5582 22.5949 18.8468 21.8827L22.4735 25.5091C20.2107 27.0796 17.463 28.0001 14.5 28.0001C6.76808 28.0001 0.5 21.732 0.5 14.0001C0.5 6.26819 6.76808 0.00012207 14.5 0.00012207C17.463 0.00012207 20.2107 0.920596 22.4735 2.49111Z" fill="#1F87FF"/>
<path d="M84.2057 7H85.9777C86.0497 7 86.0857 7.03852 86.0857 7.11554V9.00271C86.0857 9.07973 86.0497 9.11825 85.9777 9.11825H84.2057C84.1337 9.11825 84.0977 9.07973 84.0977 9.00271V7.11554C84.0977 7.03852 84.1337 7 84.2057 7Z" fill="#4B4E52"/>
<path d="M84.2057 10.25H85.9777C86.0497 10.25 86.0857 10.327 86.0857 10.3655V21.4574C86.0857 21.5345 86.0497 21.573 85.9777 21.573H84.2057C84.1337 21.573 84.0977 21.5345 84.0977 21.4574V10.3655C84.0977 10.2885 84.1337 10.25 84.2057 10.25Z" fill="#4B4E52"/>
<path d="M45.2061 5H46.9778C47.0139 5 47.0862 5.03851 47.0862 5.11554V21.2142C47.0862 21.2912 47.0501 21.3297 46.9778 21.3297H45.2061C45.1338 21.3297 45.0977 21.2912 45.0977 21.2142V5.11554C45.0977 5.03851 45.1338 5 45.2061 5Z" fill="#4B4E52"/>
<path d="M72.2061 5H73.9778C74.0139 5 74.0862 5.03851 74.0862 5.11554V21.2142C74.0862 21.2912 74.0501 21.3297 73.9778 21.3297H72.2061C72.1338 21.3297 72.0977 21.2912 72.0977 21.2142V5.11554C72.0977 5.03851 72.1338 5 72.2061 5Z" fill="#4B4E52"/>
<path d="M77.3765 10C76.2195 10 74.8817 10.7703 74.2671 11.6946C74.2309 11.7716 74.0863 11.7331 74.0863 11.6561V10.3081C74.0863 10.2696 74.0501 10.1926 73.9778 10.1926H72.2062C72.17 10.1926 72.0977 10.2311 72.0977 10.3081V21.4385C72.0977 21.477 72.1339 21.5541 72.2062 21.5541H73.9778C74.014 21.5541 74.0863 21.5155 74.0863 21.4385V15.8926C74.0863 13.7743 75.4241 12.2723 77.3403 12.2723C79.8712 12.2723 80.6305 14.0439 80.6305 16.1237V21.4385C80.6305 21.477 80.6667 21.5541 80.739 21.5541H82.5106C82.5468 21.5541 82.6191 21.5155 82.6191 21.4385V16.1237C82.6552 12.8885 81.209 10 77.3765 10Z" fill="#4B4E52"/>
<path fill-rule="evenodd" clip-rule="evenodd" d="M41.4957 9.68921C38.4586 9.68921 36 12.3081 36 15.5433C36 18.7784 38.4586 21.3973 41.4957 21.3973C44.5328 21.3973 46.9914 18.7784 46.9914 15.5433C46.9914 12.3081 44.5328 9.68921 41.4957 9.68921ZM41.4957 11.8074C43.4481 11.8074 45.0028 13.502 45.0028 15.5432C45.0028 17.5845 43.412 19.2791 41.4957 19.2791C39.5794 19.2791 37.9886 17.5845 37.9886 15.5432C37.9886 13.502 39.5794 11.8074 41.4957 11.8074Z" fill="#4B4E52"/>
<path fill-rule="evenodd" clip-rule="evenodd" d="M53.5033 9.68994C50.4662 9.68994 48.0076 12.3089 48.0076 15.544C48.0076 18.7791 50.4662 21.398 53.5033 21.398C56.5404 21.398 58.9989 18.7791 58.9989 15.544C58.9989 12.3089 56.5404 9.68994 53.5033 9.68994ZM53.5033 11.8082C55.4557 11.8082 57.0104 13.5028 57.0104 15.5439C57.0104 17.5852 55.4195 19.2798 53.5033 19.2798C51.587 19.2798 49.9961 17.5852 49.9961 15.5439C49.9961 13.5028 51.587 11.8082 53.5033 11.8082Z" fill="#4B4E52"/>
<path fill-rule="evenodd" clip-rule="evenodd" d="M65.5934 9.68994C62.5563 9.68994 60.0977 12.3089 60.0977 15.544C60.0977 18.7791 62.5563 21.398 65.5934 21.398C68.6305 21.398 71.089 18.7791 71.089 15.544C71.089 12.3089 68.6305 9.68994 65.5934 9.68994ZM65.5933 11.8082C67.5458 11.8082 69.1005 13.5028 69.1005 15.5439C69.1005 17.5852 67.5096 19.2798 65.5933 19.2798C63.6771 19.2798 62.0862 17.5852 62.0862 15.5439C62.0862 13.5028 63.6771 11.8082 65.5933 11.8082Z" fill="#4B4E52"/>
</svg>
